<svg width="64" height="64" viewBox="0 0 256 116" xmlns="http://www.w3.org/2000/svg">
  <path fill="#ffffff" d="M198.7 50.7c-1.6 0-3.2.1-4.8.3-4.8-20.2-23-35.3-44.7-35.3-19.3 0-35.9 11.9-42.7 28.8-4.1-3.7-9.6-5.9-15.5-5.9-12.8 0-23.2 10.4-23.2 23.2 0 1.8.2 3.5.6 5.2H54.2C34 67 17.7 83.3 17.7 103.5c0 2.3 1.9 4.2 4.2 4.2h177.5c15.7 0 28.5-12.8 28.5-28.5s-13.1-28.5-29.2-28.5Z"/>
  <path fill="#ffffff" opacity=".75" d="M103.4 107.7h103.9c18.2 0 33-14.8 33-33 0-2.7-.3-5.3-.9-7.8 9.8 5.5 16.6 16 16.6 28.1 0 17.8-14.5 32.3-32.3 32.3H107.9c-5.6 0-7.1-8.1-4.5-19.6Z"/>
</svg>