<svg width="64" height="64" viewBox="0 0 64 64" xmlns="http://www.w3.org/2000/svg">
  <path
    fill="#ffffff"
    d="M40.7 22.8C38.4 17.7 33.3 14 27.4 14c-7.4 0-13.5 5.5-14.5 12.6C7.8 28.1 4 32.8 4 38.3 4 44.8 9.2 50 15.7 50h26.9C52.2 50 60 42.2 60 32.6 60 24.2 53.9 17.2 45.9 16c-1.6 2.6-3.4 4.8-5.2 6.8Z"
  />
  <path
    fill="#050711"
    opacity="0.18"
    d="M40.2 45.2H16.1c-3.9 0-7.1-3.1-7.1-6.9 0-3.3 2.4-6.2 5.7-6.8l2.7-.5.3-2.7c.6-5.4 4.8-9.4 9.7-9.4 4.1 0 7.8 2.7 9.3 6.7l1.1 3 2.7-1.7c1.6-1 3.4-1.5 5.3-1.5 5.4 0 9.7 4.3 9.7 9.6 0 5.7-4.6 10.2-15.3 10.2Z"
  />
</svg>